<svg xmlns="http://www.w3.org/2000/svg" viewBox="0 0 24 24"><defs><style>.cls-1{fill:#4281f0;}.cls-2{fill:#34a453;}.cls-3{fill:#f7b804;}.cls-4{fill:#e64335;}</style></defs><g id="圖層_1" data-name="圖層 1"><path class="cls-1" d="M20.46,12.2a9.44,9.44,0,0,0-.15-1.76H12.17v3.33h4.66a4,4,0,0,1-1.72,2.62v2.16h2.78a8.43,8.43,0,0,0,2.57-6.35Z"/><path class="cls-2" d="M12.17,20.63a8.25,8.25,0,0,0,5.72-2.08l-2.78-2.16a5.22,5.22,0,0,1-7.78-2.74H4.46v2.23A8.63,8.63,0,0,0,12.17,20.63Z"/><path class="cls-3" d="M7.32,13.65a5.18,5.18,0,0,1,0-3.3V8.13H4.46a8.6,8.6,0,0,0,0,7.75Z"/><path class="cls-4" d="M12.17,6.78a4.69,4.69,0,0,1,3.31,1.3L18,5.61a8.29,8.29,0,0,0-5.78-2.24A8.62,8.62,0,0,0,4.46,8.13l2.86,2.22A5.18,5.18,0,0,1,12.17,6.78Z"/></g></svg>